# xmcd
#
# Track frame offsets: 
#        150
#        17004
#        37148
#        55240
#        78162
#        96789
#        117593
#        133936
#        156436
#        173587
#        192201
#        211521
#        229186
#        249139
#
# Disc length: 3539 seconds
#
# Revision: 0
# Processed by: cddbd v1.4PL0 Copyright (c) Steve Scherf et al.
# Submitted via: ExactAudioCopy v0.90b4
#
DISCID=b30dd10e
DTITLE=Jennifer Lopez - Special Collection
DYEAR=2000
DGENRE=R&B
TTITLE0=Love Don't Cost A Thing
TTITLE1=If You Had My Love
TTITLE2=Let's Get Loud
TTITLE3=No Me Ames (Duet With Marc Anthony)
TTITLE4=Waiting For Tonight
TTITLE5=Talk About Us
TTITLE6=(Do You Know) Where You're Going To
TTITLE7=I'm Real
TTITLE8=Walking On Sunshine
TTITLE9=Ain't It Funny
TTITLE10=Carino
TTITLE11=That's The Way
TTITLE12=Dame (Touch Me) (Duett With Chayanne)
TTITLE13=Si Ya Se Acabo
EXTD=
EXTT0=
EXTT1=
EXTT2=
EXTT3=
EXTT4=
EXTT5=
EXTT6=
EXTT7=
EXTT8=
EXTT9=
EXTT10=
EXTT11=
EXTT12=
EXTT13=
PLAYORDER=
